<svg width="553" height="728" viewBox="0 0 553 728" xmlns="http://www.w3.org/2000/svg" xmlns:xlink="http://www.w3.org/1999/xlink"><title>Logo</title><defs><path id="a" d="M100.212 159.912V.452H.241v159.46h99.971z"/></defs><g fill="none" fill-rule="evenodd"><path fill="#FFF" d="M4.442 4L0 43.743h33.303V163h44.394V43.743H111L106.558 4zM132 4v159h95.562L232 123.248h-55.551v-22.086h48.876V63.624H176.45v-19.88H232L227.562 4zm120.892 80.16c0-48.722 35.549-84.157 84.426-84.157 19.773 0 40.432 5.087 55.54 19.929l-22.22 37.62c-10.89-13.26-20.877-17.682-33.32-17.682-22.22 0-39.995 17.708-39.995 44.29 0 26.572 17.775 44.29 39.995 44.29 12.662 0 24.438-6.644 33.32-19.93l24.448 35.436c-11.11 15.497-33.102 24.36-57.768 24.36-48.877 0-84.426-35.435-84.426-84.166M415.147 4.43h44.431v57.585h43.39V4.43h44.44v159.46h-44.44v-62.017h-43.39v62.016h-44.43zM.525 190.994h46.65l26.437 90.8h.447l24.22-90.8h31.102l24.22 90.8h.447l26.428-90.8h46.668l-51.104 159.45h-42.213l-19.773-84.148h-.448l-19.773 84.148H51.629zm333.25 0h44.43v119.592h51.105l-4.446 39.858h-91.09zm119.97 0h44.43v119.592h51.105l-4.437 39.858h-91.098zM5.558 523.723l20.44-33.88 13.994 8.19c5.56 3.322 11.777 5.088 17.108 5.088 7.303 0 12.89-3.313 12.89-10.401 0-22.15-59.986-19.939-59.986-70.871 0-31.004 24.438-48.722 53.322-48.722 17.546 0 31.77 2.43 46.65 14.615l-15.1 34.998c-10.443-9.518-20.22-13.286-27.78-13.286-8.882 0-14.88 5.315-14.88 12.395 0 17.717 62.224 15.497 62.224 70.852 0 31.004-20.002 48.722-51.132 48.722-21.106 0-39.994-4.432-57.769-17.718M186.64 377.559h44.44l55.523 159.432h-46.667l-7.55-24.36h-47.097l-7.55 24.36h-46.658l55.56-159.432zm35.311 99.654l-12.89-44.29h-.447l-12.881 44.29h26.218zm66.869-99.66h47.106l22.659 93.02h.438l22-93.02h47.098l-44.65 159.459h-49.772z"/><g transform="translate(452.323 377.1)"><mask id="b" fill="#fff"><use xlink:href="#a"/></mask><path fill="#FFF" mask="url(#b)" d="M.241.453h95.526l4.446 39.867H44.672v19.929h48.877v37.646H44.672v22.15h55.541l-4.446 39.867H.241z"/></g><path d="M10.002 663.779v-99.664h44.44V665.99c0 15.506 11.1 22.15 23.325 22.15 12.223 0 23.333-6.671 23.333-22.15V564.115h44.44v99.664c0 39.858-28.884 64.218-67.764 64.218-38.88 0-67.774-24.36-67.774-64.218m161.135 46.503l20.44-33.879 14.004 8.19c5.55 3.322 11.768 5.087 17.099 5.087 7.312 0 12.89-3.313 12.89-10.401 0-22.15-59.987-19.938-59.987-70.871 0-31.004 24.439-48.722 53.323-48.722 17.546 0 31.769 2.43 46.658 14.615L260.456 609.3c-10.444-9.528-20.221-13.295-27.78-13.295-8.882 0-14.88 5.323-14.88 12.403 0 17.717 62.214 15.506 62.214 70.87 0 31.004-20.001 48.722-51.131 48.722-21.107 0-39.995-4.432-57.769-17.718m134.98-464.157l-52.922 109.09a2.543 2.543 0 0 1-3.387 1.184 2.528 2.528 0 0 1-1.424-2.494l5.332-61.097a2.557 2.557 0 0 0-2.338-2.748c-.054-.01-.118-.01-.191-.01l-16.277-.081a2.55 2.55 0 0 1-2.529-2.557c.01-.328.073-.656.2-.956l41.83-100.118a2.554 2.554 0 0 1 3.36-1.292 2.545 2.545 0 0 1 1.506 2.238l.867 58.331c.01 1.402 1.169 2.53 2.574 2.521.22-.009.439-.036.649-.09l19.773-5.46a2.539 2.539 0 0 1 3.122 1.764c.165.592.1 1.22-.164 1.775" fill="#FFF"/></g></svg>