<?xml version="1.0" encoding="UTF-8"?>
<svg viewBox="0 0 553 728" version="1.1" xmlns="http://www.w3.org/2000/svg" xmlns:xlink="http://www.w3.org/1999/xlink">
    <defs>
        <polygon id="path-1" points="100.212 159.912 100.212 0.452 0.241 0.452 0.241 159.912"></polygon>
    </defs>
    <g id="Page-1" stroke="none" stroke-width="1" fill="none" fill-rule="evenodd">
        <g id="twsu">
            <path d="M4.442,4 L0,43.743 L33.303,43.743 L33.303,163 L77.697,163 L77.697,43.743 L111,43.743 L106.558,4 L4.442,4 Z M132,4 L132,163 L227.562,163 L232,123.248 L176.449,123.248 L176.449,101.162 L225.325,101.162 L225.325,63.624 L176.45,63.624 L176.45,43.744 L232,43.744 L227.562,4 L132,4 Z M252.892,84.16 C252.892,35.438 288.441,0.003 337.318,0.003 C357.091,0.003 377.75,5.09 392.858,19.932 L370.638,57.552 C359.748,44.292 349.761,39.87 337.318,39.87 C315.098,39.87 297.323,57.578 297.323,84.16 C297.323,110.732 315.098,128.45 337.318,128.45 C349.98,128.45 361.756,121.806 370.638,108.52 L395.086,143.956 C383.976,159.453 361.984,168.316 337.318,168.316 C288.441,168.316 252.892,132.881 252.892,84.15 M415.147,4.43 L459.578,4.43 L459.578,62.015 L502.968,62.015 L502.968,4.43 L547.408,4.43 L547.408,163.89 L502.968,163.89 L502.968,101.873 L459.578,101.873 L459.578,163.89 L415.147,163.89 L415.147,4.43 Z M0.525,190.994 L47.175,190.994 L73.612,281.794 L74.059,281.794 L98.279,190.994 L129.381,190.994 L153.601,281.794 L154.048,281.794 L180.476,190.994 L227.144,190.994 L176.04,350.444 L133.827,350.444 L114.054,266.296 L113.606,266.296 L93.833,350.444 L51.629,350.444 L0.525,190.994 Z M333.775,190.994 L378.205,190.994 L378.205,310.586 L429.31,310.586 L424.864,350.444 L333.774,350.444 L333.775,190.994 Z M453.745,190.994 L498.175,190.994 L498.175,310.586 L549.28,310.586 L544.843,350.444 L453.745,350.444 L453.745,190.994 Z M5.558,523.723 L25.998,489.843 L39.992,498.033 C45.552,501.355 51.769,503.121 57.1,503.121 C64.403,503.121 69.99,499.808 69.99,492.72 C69.99,470.57 10.004,472.781 10.004,421.849 C10.004,390.845 34.442,373.127 63.326,373.127 C80.872,373.127 95.096,375.557 109.976,387.742 L94.876,422.74 C84.433,413.222 74.656,409.454 67.096,409.454 C58.214,409.454 52.216,414.769 52.216,421.849 C52.216,439.566 114.44,437.346 114.44,492.701 C114.44,523.705 94.438,541.423 63.308,541.423 C42.202,541.423 23.314,536.991 5.539,523.705 M186.64,377.559 L231.08,377.559 L286.603,536.991 L239.936,536.991 L232.386,512.631 L185.289,512.631 L177.739,536.991 L131.081,536.991 L186.641,377.559 L186.64,377.559 Z M221.951,477.213 L209.061,432.923 L208.614,432.923 L195.733,477.213 L221.951,477.213 L221.951,477.213 Z M288.82,377.553 L335.926,377.553 L358.585,470.573 L359.023,470.573 L381.023,377.553 L428.121,377.553 L383.471,537.012 L333.699,537.012 L288.82,377.553 Z" id="Shape" fill="#FFFFFF" fill-rule="nonzero"></path>
            <g id="Group" transform="translate(452.323000, 377.100000)">
                <g id="Clipped">
                    <mask id="mask-2" fill="white">
                        <use xlink:href="#path-1"></use>
                    </mask>
                    <g id="a"></g>
                    <polygon id="Path" fill="#FFFFFF" fill-rule="nonzero" mask="url(#mask-2)" points="0.241 0.453 95.767 0.453 100.213 40.32 44.672 40.32 44.672 60.249 93.549 60.249 93.549 97.895 44.672 97.895 44.672 120.045 100.213 120.045 95.767 159.912 0.241 159.912"></polygon>
                </g>
            </g>
            <path d="M10.002,663.779 L10.002,564.115 L54.442,564.115 L54.442,665.99 C54.442,681.496 65.542,688.14 77.767,688.14 C89.99,688.14 101.1,681.469 101.1,665.99 L101.1,564.115 L145.54,564.115 L145.54,663.779 C145.54,703.637 116.656,727.997 77.776,727.997 C38.896,727.997 10.002,703.637 10.002,663.779 M171.137,710.282 L191.577,676.403 L205.581,684.593 C211.131,687.915 217.349,689.68 222.68,689.68 C229.992,689.68 235.57,686.367 235.57,679.279 C235.57,657.129 175.583,659.341 175.583,608.408 C175.583,577.404 200.022,559.686 228.906,559.686 C246.452,559.686 260.675,562.116 275.564,574.301 L260.456,609.3 C250.012,599.772 240.235,596.005 232.676,596.005 C223.794,596.005 217.796,601.328 217.796,608.408 C217.796,626.125 280.01,623.914 280.01,679.278 C280.01,710.282 260.009,728 228.879,728 C207.772,728 188.884,723.568 171.11,710.282 M306.09,246.125 L253.168,355.215 C252.557315,356.47462 251.043443,357.003827 249.781,356.399 C248.834359,355.94417 248.267528,354.95142 248.357,353.905 L253.689,292.808 C253.798961,291.404593 252.753898,290.176265 251.351,290.06 C251.297,290.05 251.233,290.05 251.16,290.05 L234.883,289.969 C233.480148,289.957452 232.350101,288.814894 232.35399,287.412 C232.364,287.084 232.427,286.756 232.554,286.456 L274.384,186.338 C274.958549,185.057062 276.45926,184.480003 277.744,185.046 C278.632585,185.442726 279.217154,186.311428 279.25,187.284 L280.117,245.615 C280.127,247.017 281.286,248.145 282.691,248.136 C282.911,248.127 283.13,248.1 283.34,248.046 L303.113,242.586 C304.461985,242.213009 305.858404,243.002016 306.235,244.35 C306.4,244.942 306.335,245.57 306.071,246.125" id="Shape" fill="#FFFFFF" fill-rule="nonzero"></path>
        </g>
    </g>
</svg>